<svg xmlns="http://www.w3.org/2000/svg" viewBox="0 0 512 512" role="img" aria-label="黄色い背景にスプーン">
  <defs>
    <linearGradient id="bg" x1="80" y1="40" x2="430" y2="480" gradientUnits="userSpaceOnUse">
      <stop offset="0" stop-color="#fff176"/>
      <stop offset="0.55" stop-color="#facc15"/>
      <stop offset="1" stop-color="#f59e0b"/>
    </linearGradient>
    <filter id="soft-shadow" x="-20%" y="-20%" width="140%" height="140%">
      <feDropShadow dx="0" dy="18" stdDeviation="14" flood-color="#b45309" flood-opacity="0.22"/>
    </filter>
  </defs>
  <rect width="512" height="512" rx="112" fill="url(#bg)"/>
  <circle cx="116" cy="110" r="30" fill="#fff8d8" opacity="0.7"/>
  <circle cx="412" cy="152" r="18" fill="#fff8d8" opacity="0.7"/>
  <circle cx="384" cy="392" r="28" fill="#fff8d8" opacity="0.42"/>
  <g transform="rotate(-28 256 258)" filter="url(#soft-shadow)">
    <path d="M256 169c-31 0-56-30-56-67s25-67 56-67 56 30 56 67-25 67-56 67Z" fill="#fffefa" stroke="#f97316" stroke-width="10"/>
    <rect x="236" y="152" width="40" height="292" rx="20" fill="#fffefa" stroke="#f97316" stroke-width="10"/>
    <rect x="246" y="158" width="20" height="272" rx="10" fill="#fff8d8"/>
    <circle cx="237" cy="96" r="6" fill="#30333a"/>
    <circle cx="275" cy="96" r="6" fill="#30333a"/>
    <path d="M239 119c11 10 24 10 35 0" fill="none" stroke="#30333a" stroke-width="6" stroke-linecap="round"/>
    <circle cx="223" cy="114" r="8" fill="#fb7185" opacity="0.55"/>
    <circle cx="289" cy="114" r="8" fill="#fb7185" opacity="0.55"/>
  </g>
  <path d="M131 345l16 7-16 7-7 16-7-16-16-7 16-7 7-16Z" fill="#fffefa" opacity="0.8"/>
  <path d="M397 252l12 5-12 5-5 12-5-12-12-5 12-5 5-12Z" fill="#fffefa" opacity="0.72"/>
</svg>
